<svg width="467" height="471" viewBox="0 0 467 471" fill="none" xmlns="http://www.w3.org/2000/svg">
<g clip-path="url(#clip0_211_8582)">
<path fill-rule="evenodd" clip-rule="evenodd" d="M447.103 331.975C442.629 328.788 437.983 325.86 433.251 323.104C428.863 320.52 424.301 318.194 419.741 316.04C414.407 313.543 408.901 311.304 403.308 309.323C384.982 302.95 365.279 299.504 344.801 299.504C302.298 299.504 263.323 314.491 232.693 339.469C228.477 342.915 224.346 346.617 220.474 350.493C213.849 356.953 207.827 363.931 202.321 371.338C198.793 376.075 195.523 380.985 192.512 385.98C188.038 393.474 184.166 401.226 180.811 409.236C180.294 410.614 179.778 411.906 179.261 413.197C177.541 417.59 175.993 422.069 174.702 426.634C174.358 427.753 174.013 428.873 173.669 430.079C172.378 434.902 171.261 439.899 170.315 444.895C169.368 450.321 168.592 455.747 168.076 461.26C173.325 462.81 178.66 464.101 184.081 465.307C187.35 465.996 190.618 466.598 193.888 467.201C199.481 468.149 205.16 468.925 210.924 469.442L211.44 469.528C217.291 470.045 223.142 470.389 229.078 470.475C230.541 470.475 231.918 470.475 233.38 470.475C234.413 470.475 235.359 470.475 236.392 470.475C242.328 470.389 248.179 470.13 254.03 469.614L254.546 469.528C260.224 469.097 265.904 468.322 271.582 467.375C274.852 466.858 278.122 466.255 281.391 465.566C286.812 464.446 292.146 463.153 297.394 461.603C330.003 452.387 359.686 436.195 384.81 414.834C389.198 411.131 393.415 407.254 397.459 403.292C403.567 397.263 409.246 390.975 414.666 384.429C418.366 379.864 421.892 375.214 425.334 370.391C430.582 362.811 435.401 354.973 439.789 346.79C442.456 341.967 444.866 336.97 447.103 331.975ZM189.329 449.718C195.438 451.01 201.632 452.043 207.913 452.732C209.72 452.991 211.527 453.162 213.334 453.334C214.281 448.253 215.485 443.257 216.947 438.347C218.582 432.921 220.561 427.581 222.884 422.413C223.142 421.982 223.313 421.466 223.572 421.035C226.239 415.264 229.252 409.667 232.693 404.413C237.941 396.316 244.05 388.823 250.847 382.104C254.719 378.228 258.848 374.611 263.15 371.338C285.692 353.767 314.085 343.345 344.801 343.345C357.191 343.345 369.236 345.067 380.593 348.254C386.616 349.89 392.382 351.957 398.06 354.369C402.792 356.436 407.353 358.763 411.741 361.347C417.075 353.854 421.806 346.015 426.194 337.832C421.806 335.248 417.333 332.924 412.687 330.77C407.352 328.272 401.847 326.032 396.168 324.137C379.993 318.711 362.784 315.783 344.801 315.783C307.116 315.783 272.442 328.702 244.996 350.493C240.694 353.852 236.651 357.47 232.693 361.26C226.154 367.633 220.045 374.611 214.625 382.104C211.097 386.928 207.741 392.009 204.816 397.263C201.116 403.723 197.932 410.356 195.093 417.332C194.405 419.055 193.717 420.864 193.115 422.586C191.738 426.462 190.533 430.252 189.415 434.214C188.554 437.573 187.693 441.019 187.005 444.464C186.661 446.014 186.403 447.564 186.144 449.028C187.177 449.286 188.21 449.545 189.329 449.718ZM234.326 454.196C240.349 454.196 246.201 453.937 252.138 453.42C253.858 453.248 255.665 453.076 257.471 452.904C259.02 447.305 261.085 441.88 263.58 436.798C266.075 431.802 269.001 427.065 272.357 422.586C274.078 420.261 275.971 418.021 277.949 415.867C280.1 413.542 282.336 411.389 284.66 409.236C299.889 395.713 319.678 387.186 341.446 386.411C342.564 386.325 343.683 386.325 344.801 386.325C352.373 386.325 359.601 387.272 366.656 388.995C372.248 390.373 377.755 392.353 382.918 394.765C389.284 388.65 395.308 382.276 400.9 375.471C396.34 372.973 391.608 370.735 386.704 368.84C380.595 366.428 374.314 364.619 367.775 363.327C360.376 361.777 352.717 361.002 344.801 361.002C317.699 361.002 292.748 370.39 272.959 385.98C268.571 389.512 264.528 393.215 260.656 397.263C253.945 404.412 248.093 412.336 243.275 421.035C243.017 421.466 242.76 421.982 242.588 422.413C239.748 427.667 237.253 433.266 235.274 439.037C234.328 441.707 233.467 444.549 232.693 447.391C232.091 449.63 231.574 451.87 231.144 454.196C231.918 454.196 232.606 454.196 233.38 454.196H234.326ZM368.721 406.997C362.268 404.843 355.471 403.551 348.416 403.207C347.212 403.12 346.006 403.121 344.801 403.121C323.464 403.121 304.278 412.164 290.77 426.634C289.135 428.356 287.672 430.166 286.209 432.061C283.198 435.937 280.616 440.071 278.465 444.464C277.605 446.273 276.744 448.168 276.056 450.062C277.174 449.804 278.293 449.545 279.411 449.373C284.746 448.167 289.995 446.876 295.243 445.325C322.259 437.315 347.125 424.137 368.721 406.997Z" fill="#0F1E44"/>
<path fill-rule="evenodd" clip-rule="evenodd" d="M19.4014 331.287C23.8754 328.1 28.5209 325.17 33.3391 322.5C37.7271 320.003 42.2021 317.677 46.8483 315.524C52.1827 313.026 57.6889 310.873 63.2815 308.978C81.2637 302.777 100.536 299.504 120.669 299.504C163.086 299.504 202.149 314.491 232.693 339.469C228.477 342.915 224.346 346.617 220.475 350.493C193.028 328.702 158.354 315.783 120.669 315.783C103.117 315.783 86.253 318.539 70.4217 323.707C64.7431 325.601 59.2376 327.754 53.8171 330.252C49.171 332.319 44.6959 334.646 40.3079 337.23C44.6099 345.413 49.4291 353.249 54.6775 360.829C59.0655 358.245 63.7117 356.005 68.4438 353.938C74.1224 351.527 79.9734 349.546 85.9962 347.909C97.0092 344.981 108.624 343.345 120.669 343.345C151.385 343.345 179.692 353.767 202.321 371.338C198.793 376.075 195.523 380.985 192.512 385.98C172.723 370.39 147.771 361.002 120.669 361.002C113.184 361.002 105.87 361.692 98.8147 363.07C92.2757 364.275 85.9091 366.084 79.8003 368.409C74.8101 370.304 70.0786 372.457 65.4324 374.955C71.025 381.759 77.0478 388.219 83.5007 394.334C88.7491 391.923 94.1693 390.028 99.9339 388.736C106.559 387.185 113.528 386.325 120.669 386.325C122.218 386.325 123.852 386.411 125.487 386.497C146.653 387.616 165.926 396.058 180.811 409.236C180.295 410.614 179.778 411.906 179.262 413.197C177.541 417.59 175.993 422.069 174.702 426.634C161.194 412.164 141.921 403.121 120.669 403.121C119.895 403.121 119.121 403.121 118.347 403.121C111.119 403.379 104.236 404.584 97.6972 406.738C119.035 423.706 143.557 436.798 170.315 444.895C169.368 450.321 168.593 455.747 168.076 461.26C135.812 451.871 106.301 435.678 81.4354 414.404C77.0474 410.614 72.8308 406.738 68.7009 402.69C62.6782 396.747 57.0006 390.373 51.6661 383.827C47.9664 379.262 44.4385 374.524 40.9969 369.701C35.7485 362.122 30.931 354.283 26.629 346.101C24.0478 341.191 21.6384 336.282 19.4014 331.287Z" fill="#0F1E44"/>
<path fill-rule="evenodd" clip-rule="evenodd" d="M301.439 113.803C301.439 111.995 301.439 110.272 301.439 108.55C301.439 93.9935 302.643 79.7818 305.138 65.9146C306.17 59.9715 307.461 54.1146 309.009 48.2576C310.214 43.3481 311.677 38.4386 313.226 33.6153C314.946 28.4474 316.753 23.365 318.818 18.2832L319.077 18.4565C307.72 46.6215 301.439 77.3708 301.439 109.67C301.439 111.048 301.439 112.425 301.439 113.803ZM323.895 77.1975C322.432 87.4471 321.658 97.8694 321.658 108.55C321.658 120.866 322.691 133.096 324.67 144.897C325.1 147.567 325.53 150.152 326.046 152.736V152.907V153.252C323.121 138.868 321.658 124.054 321.658 108.809C321.658 98.0423 322.346 87.5333 323.895 77.1975Z" fill="#0F4415"/>
<path fill-rule="evenodd" clip-rule="evenodd" d="M194.792 44.3265C196.771 37.5221 199.955 31.2352 203.999 25.6366C203.053 25.895 202.105 25.8957 201.245 25.8957C190.404 25.1205 182.403 5.73956 183.78 -0.03125C192.814 5.65343 202.105 6.94574 213.205 5.4815C218.625 4.70632 225.853 4.01727 233.167 4.18953C247.965 4.62019 263.366 8.7545 266.463 24.4304C273.088 27.2728 278.766 31.9239 282.982 37.7808L256.053 51.4761C255.623 64.568 262.592 76.799 270.594 84.1202C271.712 85.1538 272.744 86.0148 273.862 86.79C274.379 87.1345 274.81 87.4783 275.326 87.8229C271.97 91.4404 267.84 94.4557 263.107 96.6951C263.366 97.9009 263.624 99.1061 263.796 100.312C264.485 104.102 264.828 107.978 264.828 111.94C264.828 114.954 264.571 117.969 264.227 120.898C263.194 128.563 260.957 135.884 257.688 142.516C257 143.981 256.224 145.359 255.45 146.737C254.417 147.771 253.04 148.546 251.578 148.976C250.889 149.148 250.115 149.235 249.341 149.235C246.932 149.235 244.781 148.288 243.233 146.737C241.77 145.187 240.823 143.033 240.823 140.708C240.823 140.019 240.91 139.33 241.082 138.64C241.77 137.435 242.459 136.23 243.061 134.938C245.04 130.976 246.502 126.754 247.449 122.275C216.991 120.294 192.9 94.6283 192.298 63.018C192.298 62.6735 192.298 62.2422 192.298 61.8976V61.467C192.298 55.5239 193.157 49.7528 194.792 44.3265ZM211.657 62.7589C212.087 79.8991 222.841 94.5421 237.811 100.055C240.909 101.174 244.179 101.949 247.535 102.294C247.449 101.691 247.362 101.174 247.19 100.571C246.674 98.1593 245.985 95.7483 245.125 93.5089C238.672 91.4417 233.165 87.1348 229.208 81.5363C225.852 77.4881 223.444 72.5776 222.497 67.1513C222.239 65.4287 222.067 63.7064 222.067 61.8976C222.067 57.5049 222.928 53.2855 224.648 49.5818C224.993 48.7205 225.336 47.9447 225.766 47.1695C229.38 38.7286 236.091 32.1819 244.264 29.2535C234.8 29.4257 226.111 32.6129 219.4 37.7808C217.508 40.3648 215.958 43.2078 214.754 46.2224C212.775 51.0457 211.657 56.2991 211.657 61.8976C211.657 62.156 211.657 62.4144 211.657 62.7589Z" fill="#CF0A04"/>
<path d="M232.909 282.611C259.995 282.611 281.952 260.63 281.952 233.515C281.952 206.4 259.995 184.42 232.909 184.42C205.823 184.42 183.866 206.4 183.866 233.515C183.866 260.63 205.823 282.611 232.909 282.611Z" fill="#FFE000"/>
<path d="M232.914 260.265C247.67 260.265 259.632 248.29 259.632 233.518C259.632 218.746 247.67 206.771 232.914 206.771C218.158 206.771 206.196 218.746 206.196 233.518C206.196 248.29 218.158 260.265 232.914 260.265Z" fill="#FFA900"/>
<path d="M232.91 305.096C272.399 305.096 304.411 273.05 304.411 233.518C304.411 193.987 272.399 161.941 232.91 161.941C193.421 161.941 161.409 193.987 161.409 233.518C161.409 273.05 193.421 305.096 232.91 305.096Z" fill="#CF0A04"/>
<path d="M232.909 282.613C259.995 282.613 281.952 260.632 281.952 233.517C281.952 206.402 259.995 184.422 232.909 184.422C205.823 184.422 183.866 206.402 183.866 233.517C183.866 260.632 205.823 282.613 232.909 282.613Z" fill="#FFE000"/>
<path d="M232.914 260.265C247.67 260.265 259.632 248.29 259.632 233.518C259.632 218.746 247.67 206.771 232.914 206.771C218.158 206.771 206.196 218.746 206.196 233.518C206.196 248.29 218.158 260.265 232.914 260.265Z" fill="#FFA900"/>
<path fill-rule="evenodd" clip-rule="evenodd" d="M56.0972 286.442C56.0111 286.269 55.9258 286.098 55.9258 285.839C55.7537 285.236 55.4962 284.547 55.3242 283.858C53.7754 278.087 52.5689 272.144 51.5364 266.201C51.5364 266.028 51.5384 265.856 51.4524 265.684C96.8812 228.475 125.789 171.974 125.789 108.753C125.789 101.346 125.444 94.1106 124.67 86.8755C123.982 80.3295 122.951 73.7839 121.574 67.4102C116.154 71.0277 110.818 74.9891 105.741 79.2095C60.3985 116.418 31.4045 172.92 31.4045 236.14C31.4045 243.548 31.8334 250.783 32.6077 257.932C33.2961 264.564 34.3285 271.024 35.6191 277.484C35.7052 277.656 35.7078 277.829 35.7939 278.002C36.3962 280.93 36.9958 283.772 37.7701 286.701C38.3724 289.112 39.0627 291.61 39.8371 294.022C40.3533 294.625 40.9536 295.228 41.6419 295.744C41.8139 295.831 41.9887 296.003 42.2468 296.089C43.6235 296.951 45.2582 297.381 46.979 297.381C52.1414 297.381 56.356 293.246 56.356 288.078C56.356 287.82 56.356 287.561 56.356 287.389C56.2699 287.044 56.1832 286.786 56.0972 286.442ZM49.3014 244.066C49.2154 241.395 49.13 238.81 49.13 236.14C49.13 182.739 71.7557 134.592 107.892 100.828C108.064 103.412 108.067 106.083 108.067 108.753C108.067 162.069 85.4379 210.216 49.3014 244.066Z" fill="#0F4415"/>
<path fill-rule="evenodd" clip-rule="evenodd" d="M101.698 273.352C140.158 231.061 163.992 175.161 165.024 113.749C165.024 112.371 165.024 110.994 165.024 109.616C165.024 77.4028 158.744 46.5673 147.386 18.4023L147.042 18.4881C141.019 20.986 134.997 23.6564 129.147 26.5848C123.468 29.4272 117.873 32.613 112.453 35.886L112.369 35.9735C107.207 39.0742 102.129 42.4327 97.2247 46.0502C38.2877 88.5992 0.000198364 157.934 0.000198364 236.142C0.000198364 249.578 1.11938 262.757 3.27037 275.591C4.30284 281.62 5.59209 287.562 7.05475 293.419L7.22617 294.109C7.91447 297.037 8.69151 299.879 9.55191 302.808C10.3263 305.306 11.0979 307.804 11.9583 310.388C12.2164 310.647 12.4746 310.904 12.8187 311.076C12.9908 311.248 13.2496 311.422 13.5077 311.594C14.8843 312.456 16.5191 312.972 18.2399 312.972C22.8 312.972 26.585 309.44 27.0152 304.961C27.0152 304.703 27.0152 304.444 27.0152 304.186V304.014C26.499 302.464 25.9834 300.913 25.5532 299.363C24.2626 295.142 23.1441 290.836 22.1116 286.443L21.9402 285.841C20.5636 279.811 19.3591 273.61 18.4987 267.408C17.036 257.159 16.2603 246.736 16.2603 236.142C16.2603 165.342 49.9877 102.38 102.3 62.501C107.29 58.7112 112.368 55.1795 117.703 51.8204L117.787 51.7346C123.207 48.2893 128.887 45.017 134.652 42.0885C136.201 46.998 137.578 51.994 138.782 57.0757C140.245 63.1049 141.449 69.1335 142.395 75.3349C142.481 75.9379 142.568 76.5404 142.654 77.1434C144.117 87.4791 144.891 98.0743 144.891 108.755C144.891 124 143.341 138.814 140.416 153.198C132.242 193.249 113.313 229.424 86.8126 258.536C84.8337 260.603 82.9422 262.671 80.8772 264.738C80.361 266.03 80.1042 267.408 80.1042 268.786C80.1042 274.987 85.1785 280.069 91.3734 280.069C93.2662 280.069 95.0744 279.638 96.6231 278.777C98.3439 276.968 99.9773 275.246 101.698 273.352Z" fill="#0F4415"/>
<path fill-rule="evenodd" clip-rule="evenodd" d="M410.407 286.442C410.493 286.269 410.579 286.098 410.579 285.839C410.751 285.236 411.008 284.547 411.18 283.858C412.729 278.087 413.936 272.144 414.968 266.201C414.968 266.028 414.966 265.856 415.052 265.684C369.623 228.475 340.715 171.974 340.715 108.753C340.715 101.346 341.06 94.1106 341.835 86.8755C342.523 80.3295 343.553 73.7839 344.93 67.4102C350.35 71.0277 355.687 74.9891 360.763 79.2095C406.106 116.418 435.1 172.92 435.1 236.14C435.1 243.548 434.671 250.783 433.897 257.932C433.208 264.564 432.176 271.024 430.885 277.484C430.799 277.656 430.797 277.829 430.711 278.002C430.108 280.93 429.509 283.772 428.734 286.701C428.132 289.112 427.442 291.61 426.667 294.022C426.151 294.625 425.551 295.228 424.863 295.744C424.69 295.831 424.516 296.003 424.258 296.089C422.881 296.951 421.246 297.381 419.525 297.381C414.363 297.381 410.148 293.246 410.148 288.078C410.148 287.82 410.148 287.561 410.148 287.389C410.234 287.044 410.321 286.786 410.407 286.442ZM417.203 244.066C417.289 241.395 417.374 238.81 417.374 236.14C417.374 182.739 394.749 134.592 358.612 100.828C358.44 103.412 358.437 106.083 358.437 108.753C358.437 162.069 381.066 210.216 417.203 244.066Z" fill="#0F4415"/>
<path fill-rule="evenodd" clip-rule="evenodd" d="M364.806 273.352C326.347 231.061 302.512 175.161 301.48 113.749C301.48 112.371 301.48 110.994 301.48 109.616C301.48 77.4028 307.761 46.5673 319.118 18.4023L319.463 18.4881C325.485 20.986 331.507 23.6564 337.358 26.5848C343.036 29.4272 348.631 32.613 354.051 35.886L354.135 35.9735C359.298 39.0742 364.375 42.4327 369.28 46.0502C428.217 88.5992 466.504 157.934 466.504 236.142C466.504 249.578 465.385 262.757 463.234 275.591C462.202 281.62 460.912 287.562 459.45 293.419L459.278 294.109C458.59 297.037 457.813 299.879 456.952 302.808C456.178 305.306 455.406 307.804 454.546 310.388C454.288 310.647 454.03 310.904 453.686 311.076C453.514 311.248 453.255 311.422 452.997 311.594C451.62 312.456 449.985 312.972 448.265 312.972C443.704 312.972 439.919 309.44 439.489 304.961C439.489 304.703 439.489 304.444 439.489 304.186V304.014C440.005 302.464 440.521 300.913 440.951 299.363C442.242 295.142 443.36 290.836 444.393 286.443L444.564 285.841C445.941 279.811 447.145 273.61 448.006 267.408C449.468 257.159 450.244 246.736 450.244 236.142C450.244 165.342 416.517 102.38 364.205 62.501C359.214 58.7112 354.136 55.1795 348.802 51.8204L348.718 51.7346C343.297 48.2893 337.617 45.017 331.853 42.0885C330.304 46.998 328.927 51.994 327.722 57.0757C326.259 63.1049 325.055 69.1335 324.109 75.3349C324.023 75.9379 323.936 76.5404 323.85 77.1434C322.388 87.4791 321.614 98.0743 321.614 108.755C321.614 124 323.163 138.814 326.089 153.198C334.262 193.249 353.192 229.424 379.692 258.536C381.671 260.603 383.562 262.671 385.627 264.738C386.143 266.03 386.4 267.408 386.4 268.786C386.4 274.987 381.326 280.069 375.131 280.069C373.238 280.069 371.43 279.638 369.881 278.777C368.161 276.968 366.527 275.246 364.806 273.352Z" fill="#0F4415"/>
</g>
<defs>
<clipPath id="clip0_211_8582">
<rect width="467" height="471" fill="white"/>
</clipPath>
</defs>
</svg>
